<svg xmlns="http://www.w3.org/2000/svg" viewBox="0 0 800 800" font-family="Georgia, 'Times New Roman', serif">
  <rect width="800" height="800" fill="#f3ead8"/>
  <rect x="40" y="40" width="440" height="440" rx="28" fill="#1f4d3a"/>
  <circle cx="260" cy="230" r="92" fill="none" stroke="#e9c46a" stroke-width="10"/>
  <path d="M260 150c46 30 46 130 0 160c-46-30-46-130 0-160z" fill="#e9c46a"/>
  <path d="M260 160v140" stroke="#1f4d3a" stroke-width="5"/>
  <text x="260" y="390" text-anchor="middle" fill="#f3ead8" font-size="54" font-style="italic">Chiya Ghar</text>
  <text x="260" y="428" text-anchor="middle" fill="#e9c46a" font-size="15" letter-spacing="6" font-family="Inter, Arial, sans-serif">SINCE · ILAM · 1998</text>
  <rect x="510" y="40" width="250" height="100" rx="20" fill="#1f4d3a"/><text x="530" y="124" fill="#f3ead8" font-size="14" font-family="Inter, Arial, sans-serif">#1F4D3A</text>
  <rect x="510" y="160" width="250" height="100" rx="20" fill="#e9c46a"/><text x="530" y="244" fill="#1f4d3a" font-size="14" font-family="Inter, Arial, sans-serif">#E9C46A</text>
  <rect x="510" y="280" width="250" height="100" rx="20" fill="#c8553d"/><text x="530" y="364" fill="#f3ead8" font-size="14" font-family="Inter, Arial, sans-serif">#C8553D</text>
  <rect x="510" y="400" width="250" height="80" rx="20" fill="#fffaf0" stroke="#d8ccb0"/><text x="530" y="454" fill="#1f4d3a" font-size="14" font-family="Inter, Arial, sans-serif">#FFFAF0</text>
  <text x="40" y="580" fill="#1f4d3a" font-size="120">Aa</text>
  <text x="240" y="540" fill="#1f4d3a" font-size="22">Georgia Italic — Headlines</text>
  <text x="240" y="580" fill="#6b6150" font-size="18" font-family="Inter, Arial, sans-serif">Inter — Body &amp; UI</text>
  <rect x="40" y="630" width="210" height="130" rx="18" fill="#c8553d"/><circle cx="145" cy="695" r="36" fill="none" stroke="#f3ead8" stroke-width="6"/><path d="M145 668c16 10 16 44 0 54c-16-10-16-44 0-54z" fill="#f3ead8"/>
  <rect x="270" y="630" width="210" height="130" rx="18" fill="#1f4d3a"/><text x="375" y="705" text-anchor="middle" fill="#e9c46a" font-size="26" font-style="italic">Chiya</text>
  <rect x="500" y="630" width="260" height="130" rx="18" fill="#fffaf0" stroke="#d8ccb0"/><text x="630" y="690" text-anchor="middle" fill="#1f4d3a" font-size="20" font-style="italic">Brewed slow,</text><text x="630" y="718" text-anchor="middle" fill="#1f4d3a" font-size="20" font-style="italic">shared warm.</text>
</svg>
